<svg width="328" height="414" viewBox="0 0 328 414" fill="none" xmlns="http://www.w3.org/2000/svg">
<g filter="url(#filter0_d_8_713)">
<path d="M271.574 401.111C278.011 398.877 284.093 395.737 289.532 391.399C301.569 381.784 309.486 367.572 311.836 352.324C314.603 334.357 310.484 315.419 301.247 299.879C294.038 287.739 283.514 277.477 270.608 271.714C273.215 272.88 274.503 281.944 275.082 284.47C276.305 289.779 277.013 295.185 277.174 300.624C278.075 330.861 261.146 359.576 237.459 377.317C227.611 384.698 217.215 391.27 206.337 397.032C204.728 397.874 203.055 398.586 201.478 399.395C202.54 400.043 209.395 401.597 211.39 402.018C215.381 402.859 219.372 403.539 223.395 404.057C239.422 406.226 256.126 406.42 271.574 401.111Z" fill="#14102F"/>
<path d="M141.778 8.51849C183.843 33.3165 203.217 92.5923 182.523 142.512C172.128 167.602 155.457 190.198 140.716 213.345C130.514 229.37 117.834 243.873 107.857 260.028C78.6339 307.26 73.7741 355.853 102.611 405.546C72.6799 407.456 26.2065 353.943 15.0387 323.771C-3.49912 273.754 10.9514 230.535 41.88 191.299C66.6293 159.897 94.0499 130.599 118.638 99.0346C138.978 72.9092 150.017 43.0609 141.778 8.51849Z" fill="#14102F"/>
<path d="M223.91 127.847C249.431 156.562 252.328 190.846 241.45 224.708C234.241 247.175 220.659 268.607 206.015 287.416C180.558 320.113 164.112 353.716 179.174 397.097C133.699 373.626 118.669 329.76 142.356 282.495C155.744 255.819 174.926 231.96 192.659 207.68C210.071 183.853 224.714 159.508 223.91 127.847Z" fill="#14102F"/>
</g>
<defs>
<filter id="filter0_d_8_713" x="5.81432" y="8.51849" width="313.871" height="405.077" filterUnits="userSpaceOnUse" color-interpolation-filters="sRGB">
<feFlood flood-opacity="0" result="BackgroundImageFix"/>
<feColorMatrix in="SourceAlpha" type="matrix" values="0 0 0 0 0 0 0 0 0 0 0 0 0 0 0 0 0 0 127 0" result="hardAlpha"/>
<feOffset dx="3" dy="4"/>
<feGaussianBlur stdDeviation="2"/>
<feComposite in2="hardAlpha" operator="out"/>
<feColorMatrix type="matrix" values="0 0 0 0 0.0844749 0 0 0 0 0.0960265 0 0 0 0 0.207692 0 0 0 1 0"/>
<feBlend mode="normal" in2="BackgroundImageFix" result="effect1_dropShadow_8_713"/>
<feBlend mode="normal" in="SourceGraphic" in2="effect1_dropShadow_8_713" result="shape"/>
</filter>
</defs>
</svg>
