<svg xmlns="http://www.w3.org/2000/svg" viewBox="0 0 1920 1080">
    <g>
        <path fill="#F9CC3D" d="M614.13,536.42c-5.36,8.89-10.92,17.2-15.57,25.98c-14.45,27.35-28.51,54.9-42.82,82.33
      c-7.29,13.98-14.77,27.86-22.23,41.75c-1.21,2.26-2.44,5.53-5.74,4.03c-3.52-1.6-1.8-4.87-0.74-7.27
      c16.2-36.66,32.05-73.48,48.88-109.85c28.89-62.4,60.7-123.35,93.29-183.88c20.2-37.52,40.1-75.21,60.35-112.71
      c4.28-7.93,9.47-15.37,14.33-22.98c1.28-2.01,2.87-4.54,5.7-2.95c2.93,1.64,1.83,4.44,0.61,6.7
      c-7.94,14.72-16.01,29.38-23.96,44.1c-7.44,13.77-14.85,27.55-22.11,41.42c-0.94,1.79-1.16,4.1-1.21,6.18
      c-0.12,4.66-1.7,7.31-6.15,7.93c-2.89,0.4-4.1,2-5.27,4.17c-13.18,24.49-26.65,48.83-39.51,73.49
      c-18.69,35.86-37.3,71.77-55.23,108.01c-11.78,23.82-22.3,48.27-33.38,72.45c-0.2,0.43-0.29,0.91,0.12,1.68
      c3.73-6.7,7.71-13.28,11.14-20.13c16.66-33.32,35.02-65.67,55.39-96.85c27.52-42.13,57.59-82.28,92.78-118.42
      c25.9-26.6,53.85-50.68,85.99-69.53c16.46-9.65,33.6-17.86,52.36-22.07c13.04-2.92,26.19-3.92,39.36-0.63
      c20.83,5.2,34.31,22.52,34.43,43.92c0.11,19.52-7.08,36.62-17.07,52.85c-17.03,27.69-39.82,50.05-64.96,70.21
      c-37.37,29.97-79.71,50.31-125.44,63.8c-19.97,5.89-40.07,11.42-60.33,16.24c-10.73,2.55-21.88,3.45-32.89,4.67
      C627.49,541.79,620.7,541.42,614.13,536.42z"/>
        <path fill="#F9CC3D" d="M1209.67,401.15c1.62,0,2.89,0.02,4.15,0c43.87-0.82,87.74-1.68,131.61-2.41c6.61-0.11,13.24,0.33,19.86,0.6
      c1.3,0.05,2.74,0.24,3.84,0.87c1.01,0.58,2.19,1.78,2.28,2.8c0.08,1-0.88,2.66-1.8,3.07c-7.37,3.32-15.17,3.38-23.03,2.62
      ... (весь path сохранён полностью)
      C1200.6,400.32z"/>
        <path fill="#F9CC3D" d="M1207.74,614.74c1.13,4.24,0.17,5.54-4.09,5.74c-6.29,0.3-11.56-4.51-11.9-11.08
      ... (полный path)
      C1130.72,583.55z"/>
        <path fill="#F9CC3D" d="M708.19,593.67c5.63-4.39,11.13-8.95,16.92-13.13
      ..."/>
        <path fill="#F9CC3D" d="M790.17,605.98c1.36-14.81,7.27-27.9,18.13-38.71
      ..."/>
        <path fill="#F9CC3D" d="M1047.86,466.08c3.26,6.02,3.67,12.02,1.37,17.91
      ..."/>
        <path fill="#F9CC3D" d="M1056.98,484.61c1.61,3.88,1.71,8.27-0.12,12.48
      ..."/>
        <path fill="#F9CC3D" d="M1052.4,512.57c2.63,2.11,5.16,4.58,8.06,1.76
      ..."/>
    </g>
</svg>
