<svg xmlns="http://www.w3.org/2000/svg" xmlns:xlink="http://www.w3.org/1999/xlink" width="300" zoomAndPan="magnify" viewBox="0 0 224.87999 225" height="300" preserveAspectRatio="xMidYMid meet"><defs><clipPath id="c3516212ed"><path d="M 1.195312 1.261719 L 223.828125 1.261719 L 223.828125 223.738281 L 1.195312 223.738281 Z M 1.195312 1.261719 " clip-rule="nonzero"></path></clipPath></defs><g clip-path="url(#c3516212ed)"><path fill="#ffee57" d="M 223.828125 112.5 C 223.828125 173.902344 173.957031 223.738281 112.511719 223.738281 C 51.066406 223.738281 1.195312 173.902344 1.195312 112.5 C 1.195312 51.097656 51.066406 1.261719 112.511719 1.261719 C 173.957031 1.261719 223.828125 51.097656 223.828125 112.5 Z M 223.828125 112.5 " fill-opacity="1" fill-rule="nonzero"></path></g><path fill="#313131" d="M 166.65625 101.199219 C 168.167969 96.304688 171.910156 93.542969 179.746094 93.542969 C 179.566406 96.570312 179.480469 101.464844 179.390625 104.046875 C 179.390625 104.046875 177.164062 103.15625 173.867188 103.601562 C 169.238281 104.3125 167.277344 108.496094 167.011719 110.632812 C 166.566406 113.035156 166.65625 115.882812 166.65625 118.460938 L 166.65625 133.058594 L 155.523438 133.058594 L 155.523438 93.988281 L 166.65625 93.988281 Z M 137.179688 115.167969 C 137.179688 120.242188 137.179688 126.828125 130.144531 126.828125 C 127.292969 126.828125 125.425781 125.582031 124.445312 123.089844 C 123.644531 121.398438 123.554688 118.285156 123.554688 116.414062 L 123.554688 94.167969 L 112.421875 94.167969 L 112.421875 116.503906 C 112.421875 120.507812 111.976562 125.492188 114.558594 128.964844 C 116.964844 132.433594 121.507812 134.570312 127.117188 134.570312 C 129.164062 134.570312 133.261719 134.214844 137.625 130.296875 L 137.625 133.234375 L 148.3125 133.234375 L 148.3125 94.167969 L 137.179688 94.167969 Z M 94.34375 135.015625 C 94.34375 141.332031 91.140625 143.46875 87.667969 144.359375 L 88.914062 149.964844 C 92.742188 149.609375 96.660156 148.71875 99.6875 146.316406 C 104.140625 142.847656 105.566406 139.199219 105.566406 133.859375 L 105.566406 93.722656 L 94.433594 93.722656 L 94.433594 135.015625 Z M 69.054688 126.382812 C 73.238281 126.382812 76.535156 121.933594 76.535156 113.480469 C 76.535156 104.402344 73.597656 99.953125 69.5 99.953125 C 62.464844 99.953125 61.664062 108.851562 61.664062 113.925781 C 61.75 118.820312 62.820312 126.117188 69.054688 126.382812 Z M 72.617188 93.011719 C 84.191406 93.011719 88.46875 102.355469 88.46875 112.589844 C 88.46875 127.003906 80.632812 133.503906 72.347656 133.503906 C 68.164062 133.589844 63.890625 131.8125 61.929688 128.785156 L 61.929688 149.519531 L 50.796875 149.519531 L 50.796875 93.722656 L 61.484375 93.722656 L 61.484375 98.082031 C 64.511719 94.257812 67.71875 93.011719 72.617188 93.011719 Z M 99.867188 88.828125 C 106.011719 88.828125 110.910156 83.84375 110.910156 77.792969 C 110.910156 71.742188 105.921875 66.667969 99.867188 66.667969 C 93.8125 66.667969 88.824219 71.652344 88.824219 77.792969 C 88.824219 83.933594 93.8125 88.828125 99.867188 88.828125 Z M 99.867188 88.828125 " fill-opacity="1" fill-rule="nonzero"></path></svg>