<?xml version="1.0" encoding="utf-8"?>
<!-- Generator: Adobe Illustrator 15.1.0, SVG Export Plug-In . SVG Version: 6.00 Build 0)  -->
<!DOCTYPE svg PUBLIC "-//W3C//DTD SVG 1.1//EN" "http://www.w3.org/Graphics/SVG/1.1/DTD/svg11.dtd">
<svg version="1.1" id="Layer_1" xmlns="http://www.w3.org/2000/svg" xmlns:xlink="http://www.w3.org/1999/xlink" x="0px" y="0px"
	 width="120.24px" height="120.24px" viewBox="-0.12 -0.12 120.24 120.24" enable-background="new -0.12 -0.12 120.24 120.24"
	 xml:space="preserve">
<rect x="-0.12" y="-0.12" width="120.24" height="120.24"/>
<g>
	<defs>
		<rect id="SVGID_1_" x="9.168" y="2.989" width="102.38" height="113.433"/>
	</defs>
	<clipPath id="SVGID_2_">
		<use xlink:href="#SVGID_1_"  overflow="visible"/>
	</clipPath>
	
		<linearGradient id="SVGID_3_" gradientUnits="userSpaceOnUse" x1="-151.1372" y1="295.502" x2="-150.8638" y2="295.502" gradientTransform="matrix(374.4194 0 0 -374.4194 56597.875 110701.375)">
		<stop  offset="0" style="stop-color:#B78727"/>
		<stop  offset="0.0056" style="stop-color:#B78727"/>
		<stop  offset="0.1538" style="stop-color:#FFFFFF"/>
		<stop  offset="0.3989" style="stop-color:#FBE4AE"/>
		<stop  offset="0.5275" style="stop-color:#FFF5B4"/>
		<stop  offset="0.6429" style="stop-color:#FBE4AE"/>
		<stop  offset="0.7363" style="stop-color:#FFFFFF"/>
		<stop  offset="0.8352" style="stop-color:#E6C489"/>
		<stop  offset="1" style="stop-color:#A46122"/>
	</linearGradient>
	<rect x="9.168" y="2.989" clip-path="url(#SVGID_2_)" fill="url(#SVGID_3_)" width="102.38" height="113.433"/>
</g>
<g>
	<defs>
		<path id="SVGID_4_" d="M7.418,118.322V1.089h105.876v116.089v1.145H7.418z M112.225,117.178v-1.146V117.178z"/>
	</defs>
	<clipPath id="SVGID_5_">
		<use xlink:href="#SVGID_4_"  overflow="visible"/>
	</clipPath>
	
		<linearGradient id="SVGID_6_" gradientUnits="userSpaceOnUse" x1="-151.1372" y1="295.5029" x2="-150.8638" y2="295.5029" gradientTransform="matrix(387.2057 0 0 -387.2057 58528.8086 114479.6953)">
		<stop  offset="0" style="stop-color:#B78727"/>
		<stop  offset="0.0056" style="stop-color:#B78727"/>
		<stop  offset="0.1538" style="stop-color:#FFFFFF"/>
		<stop  offset="0.3989" style="stop-color:#FBE4AE"/>
		<stop  offset="0.5275" style="stop-color:#FFF5B4"/>
		<stop  offset="0.6429" style="stop-color:#FBE4AE"/>
		<stop  offset="0.7363" style="stop-color:#FFFFFF"/>
		<stop  offset="0.8352" style="stop-color:#E6C489"/>
		<stop  offset="1" style="stop-color:#A46122"/>
	</linearGradient>
	<rect x="7.418" y="1.089" clip-path="url(#SVGID_5_)" fill="url(#SVGID_6_)" width="105.876" height="117.233"/>
</g>
<rect x="8.494" y="2.236" width="103.731" height="114.94"/>
<g>
	<path fill="#FFFFFF" d="M20.163,89.603l0.81-0.764c0.152,0.901,0.414,1.598,0.787,2.094c0.373,0.495,0.82,0.744,1.341,0.744
		c0.659,0,1.173-0.341,1.543-1.026c0.371-0.681,0.556-1.628,0.556-2.838c0-0.884-0.125-1.618-0.374-2.202
		c-0.25-0.582-0.785-1.257-1.604-2.024c-1.049-0.977-1.747-1.834-2.092-2.574c-0.346-0.744-0.519-1.636-0.519-2.679
		c0-1.3,0.25-2.358,0.75-3.173c0.501-0.819,1.149-1.23,1.946-1.23c0.522,0,0.976,0.195,1.363,0.585
		c0.386,0.387,0.701,0.969,0.942,1.741l-0.733,0.777c-0.151-0.526-0.366-0.926-0.644-1.202c-0.278-0.273-0.607-0.413-0.986-0.413
		c-0.512,0-0.92,0.267-1.223,0.796c-0.304,0.528-0.456,1.246-0.456,2.146c0,1.282,0.603,2.48,1.807,3.588
		c0.218,0.199,0.384,0.356,0.498,0.463c0.887,0.859,1.48,1.667,1.779,2.435c0.299,0.762,0.448,1.749,0.448,2.968
		c0,1.645-0.273,2.945-0.818,3.906c-0.546,0.965-1.288,1.444-2.228,1.444c-0.683,0-1.267-0.296-1.753-0.894
		C20.817,91.675,20.438,90.785,20.163,89.603"/>
	<polygon fill="#FFFFFF" points="32.414,92.678 32.414,74.369 33.36,74.369 33.36,81.798 39.03,81.798 39.03,74.369 39.977,74.369 
		39.977,92.678 39.03,92.678 39.03,83.224 33.36,83.224 33.36,92.678 	"/>
	<path fill="#FFFFFF" d="M46.722,74.369h0.932v11.955c0,1.811,0.234,3.151,0.704,4.034c0.47,0.88,1.188,1.318,2.155,1.318
		c0.955,0,1.665-0.438,2.135-1.318c0.47-0.883,0.705-2.224,0.705-4.034V74.369h0.945v11.419c0,2.475-0.313,4.323-0.938,5.544
		c-0.626,1.223-1.576,1.831-2.847,1.831c-1.276,0-2.227-0.608-2.853-1.831c-0.626-1.221-0.938-3.069-0.938-5.544V74.369z"/>
	<polygon fill="#FFFFFF" points="61.043,92.678 61.043,73.593 68.423,88.915 68.423,74.369 69.305,74.369 69.305,93.215 
		61.934,77.869 61.934,92.678 	"/>
	<path fill="#FFFFFF" d="M84.638,78.974c-0.423-1.154-0.942-2.024-1.56-2.616c-0.616-0.591-1.311-0.888-2.084-0.888
		c-1.29,0-2.34,0.77-3.15,2.3c-0.812,1.535-1.219,3.523-1.219,5.966c0,1.092,0.108,2.124,0.325,3.09
		c0.216,0.967,0.529,1.824,0.942,2.576c0.417,0.742,0.885,1.299,1.401,1.671c0.517,0.369,1.082,0.555,1.7,0.555
		c1.168,0,2.116-0.603,2.851-1.814c0.731-1.207,1.109-2.79,1.126-4.74h-3.593v-1.437h4.632v0.202c0,2.915-0.451,5.2-1.358,6.852
		c-0.905,1.651-2.153,2.474-3.742,2.474c-1.579,0-2.858-0.882-3.834-2.65c-0.978-1.766-1.466-4.083-1.466-6.952
		c0-1.318,0.123-2.563,0.368-3.731c0.247-1.173,0.604-2.191,1.069-3.058c0.502-0.943,1.071-1.648,1.703-2.115
		c0.633-0.465,1.338-0.7,2.115-0.7c1.06,0,1.965,0.337,2.719,1.009c0.755,0.67,1.336,1.655,1.744,2.954L84.638,78.974z"/>
	<path fill="#FFFFFF" d="M90.777,92.678l4.575-19.035l4.382,19.035h-1.031l-1.33-6.204h-4.256l-1.378,6.204H90.777z M93.438,85.048
		h3.629l-1.778-7.965L93.438,85.048z"/>
	<polygon fill="#FFFFFF" points="21.53,102.103 21.53,97.391 25.178,97.391 25.178,97.793 22.199,97.793 22.199,99.267 
		25.178,99.267 25.178,99.67 22.199,99.67 22.199,101.7 25.178,101.7 25.178,102.103 	"/>
	<polygon fill="none" stroke="#FFFFFF" stroke-width="0.2" points="21.53,102.103 21.53,97.391 25.178,97.391 25.178,97.793 
		22.199,97.793 22.199,99.267 25.178,99.267 25.178,99.67 22.199,99.67 22.199,101.7 25.178,101.7 25.178,102.103 	"/>
	<path fill="#FFFFFF" d="M34.263,102.103h-0.815l-2.587-2.245h-0.403v2.245h-0.669v-4.714h1.354c0.799,0,1.396,0.107,1.794,0.317
		c0.397,0.215,0.596,0.536,0.596,0.967c0,0.367-0.169,0.658-0.51,0.867c-0.341,0.212-0.81,0.317-1.407,0.317L34.263,102.103z
		 M30.458,97.764v1.741h0.675c0.624,0,1.06-0.063,1.305-0.19c0.247-0.129,0.371-0.345,0.371-0.653c0-0.323-0.127-0.555-0.383-0.69
		c-0.255-0.138-0.686-0.207-1.293-0.207H30.458z"/>
	<path fill="none" stroke="#FFFFFF" stroke-width="0.2" d="M34.263,102.103h-0.815l-2.587-2.245h-0.403v2.245h-0.669v-4.714h1.354
		c0.799,0,1.396,0.107,1.794,0.317c0.397,0.215,0.596,0.536,0.596,0.967c0,0.367-0.169,0.658-0.51,0.867
		c-0.341,0.212-0.81,0.317-1.407,0.317L34.263,102.103z M30.458,97.764v1.741h0.675c0.624,0,1.06-0.063,1.305-0.19
		c0.247-0.129,0.371-0.345,0.371-0.653c0-0.323-0.127-0.555-0.383-0.69c-0.255-0.138-0.686-0.207-1.293-0.207H30.458z"/>
	<path fill="#FFFFFF" d="M45.739,99.756c0,0.333-0.099,0.65-0.297,0.947c-0.199,0.301-0.483,0.568-0.856,0.802
		c-0.38,0.233-0.807,0.415-1.285,0.54c-0.477,0.122-0.98,0.186-1.511,0.186c-0.53,0-1.032-0.063-1.508-0.186
		c-0.475-0.125-0.9-0.307-1.277-0.54c-0.375-0.237-0.662-0.507-0.858-0.804c-0.196-0.297-0.294-0.612-0.294-0.945
		c0-0.337,0.098-0.654,0.294-0.955c0.197-0.296,0.483-0.566,0.858-0.806c0.37-0.233,0.79-0.411,1.265-0.529
		c0.474-0.123,0.98-0.183,1.521-0.183c0.544,0,1.054,0.062,1.529,0.185c0.475,0.118,0.897,0.296,1.267,0.527
		c0.375,0.239,0.661,0.51,0.858,0.806C45.64,99.102,45.739,99.419,45.739,99.756 M41.79,101.846c0.437,0,0.85-0.05,1.239-0.155
		c0.39-0.103,0.741-0.252,1.054-0.451c0.305-0.197,0.54-0.425,0.703-0.678c0.162-0.256,0.244-0.524,0.244-0.806
		c0-0.283-0.08-0.551-0.241-0.804c-0.162-0.251-0.397-0.479-0.706-0.679c-0.306-0.199-0.654-0.351-1.044-0.452
		c-0.393-0.104-0.808-0.155-1.248-0.155c-0.436,0-0.848,0.052-1.233,0.155c-0.386,0.102-0.736,0.253-1.047,0.452
		c-0.31,0.202-0.544,0.428-0.706,0.679c-0.162,0.251-0.242,0.519-0.242,0.804c0,0.283,0.08,0.553,0.242,0.806
		c0.161,0.251,0.396,0.477,0.706,0.678c0.308,0.201,0.654,0.352,1.037,0.453C40.929,101.796,41.344,101.846,41.79,101.846"/>
	<path fill="none" stroke="#FFFFFF" stroke-width="0.2" d="M45.739,99.756c0,0.333-0.099,0.65-0.297,0.947
		c-0.199,0.301-0.483,0.568-0.856,0.802c-0.38,0.233-0.807,0.415-1.285,0.54c-0.477,0.122-0.98,0.186-1.511,0.186
		c-0.53,0-1.032-0.063-1.508-0.186c-0.475-0.125-0.9-0.307-1.277-0.54c-0.375-0.237-0.662-0.507-0.858-0.804
		c-0.196-0.297-0.294-0.612-0.294-0.945c0-0.337,0.098-0.654,0.294-0.955c0.197-0.296,0.483-0.566,0.858-0.806
		c0.37-0.233,0.79-0.411,1.265-0.529c0.474-0.123,0.98-0.183,1.521-0.183c0.544,0,1.054,0.062,1.529,0.185
		c0.475,0.118,0.897,0.296,1.267,0.527c0.375,0.239,0.661,0.51,0.858,0.806C45.64,99.102,45.739,99.419,45.739,99.756z
		 M41.79,101.846c0.437,0,0.85-0.05,1.239-0.155c0.39-0.103,0.741-0.252,1.054-0.451c0.305-0.197,0.54-0.425,0.703-0.678
		c0.162-0.256,0.244-0.524,0.244-0.806c0-0.283-0.08-0.551-0.241-0.804c-0.162-0.251-0.397-0.479-0.706-0.679
		c-0.306-0.199-0.654-0.351-1.044-0.452c-0.393-0.104-0.808-0.155-1.248-0.155c-0.436,0-0.848,0.052-1.233,0.155
		c-0.386,0.102-0.736,0.253-1.047,0.452c-0.31,0.202-0.544,0.428-0.706,0.679c-0.162,0.251-0.242,0.519-0.242,0.804
		c0,0.283,0.08,0.553,0.242,0.806c0.161,0.251,0.396,0.477,0.706,0.678c0.308,0.201,0.654,0.352,1.037,0.453
		C40.929,101.796,41.344,101.846,41.79,101.846z"/>
	<polygon fill="#FFFFFF" points="51.496,102.103 51.496,97.793 49.467,97.793 49.467,97.391 54.199,97.391 54.199,97.793 
		52.166,97.793 52.166,102.103 	"/>
	<polygon fill="none" stroke="#FFFFFF" stroke-width="0.2" points="51.496,102.103 51.496,97.793 49.467,97.793 49.467,97.391 
		54.199,97.391 54.199,97.793 52.166,97.793 52.166,102.103 	"/>
	<rect x="58.282" y="97.389" fill="#FFFFFF" width="0.669" height="4.714"/>
	<rect x="58.282" y="97.389" fill="none" stroke="#FFFFFF" stroke-width="0.2" width="0.669" height="4.714"/>
	<path fill="#FFFFFF" d="M69.677,98.254c-0.365-0.203-0.74-0.353-1.122-0.45s-0.786-0.142-1.209-0.142
		c-0.953,0-1.725,0.191-2.322,0.578c-0.596,0.387-0.895,0.888-0.895,1.51c0,0.313,0.075,0.592,0.222,0.841
		c0.146,0.248,0.367,0.471,0.666,0.662c0.295,0.189,0.632,0.333,1.013,0.434c0.383,0.098,0.791,0.147,1.227,0.147
		c0.422,0,0.835-0.046,1.237-0.14c0.403-0.092,0.785-0.228,1.144-0.409v0.503c-0.362,0.142-0.746,0.251-1.15,0.327
		c-0.405,0.075-0.805,0.113-1.2,0.113c-0.534,0-1.043-0.062-1.529-0.184c-0.487-0.121-0.905-0.293-1.253-0.513
		c-0.36-0.229-0.632-0.492-0.817-0.793c-0.184-0.3-0.276-0.629-0.276-0.989c0-0.352,0.096-0.681,0.285-0.987
		c0.189-0.302,0.463-0.566,0.816-0.786c0.347-0.217,0.763-0.387,1.251-0.509c0.489-0.123,0.996-0.185,1.523-0.185
		c0.47,0,0.905,0.041,1.306,0.125s0.767,0.206,1.095,0.371L69.677,98.254z"/>
	<path fill="none" stroke="#FFFFFF" stroke-width="0.2" d="M69.677,98.254c-0.365-0.203-0.74-0.353-1.122-0.45
		s-0.786-0.142-1.209-0.142c-0.953,0-1.725,0.191-2.322,0.578c-0.596,0.387-0.895,0.888-0.895,1.51c0,0.313,0.075,0.592,0.222,0.841
		c0.146,0.248,0.367,0.471,0.666,0.662c0.295,0.189,0.632,0.333,1.013,0.434c0.383,0.098,0.791,0.147,1.227,0.147
		c0.422,0,0.835-0.046,1.237-0.14c0.403-0.092,0.785-0.228,1.144-0.409v0.503c-0.362,0.142-0.746,0.251-1.15,0.327
		c-0.405,0.075-0.805,0.113-1.2,0.113c-0.534,0-1.043-0.062-1.529-0.184c-0.487-0.121-0.905-0.293-1.253-0.513
		c-0.36-0.229-0.632-0.492-0.817-0.793c-0.184-0.3-0.276-0.629-0.276-0.989c0-0.352,0.096-0.681,0.285-0.987
		c0.189-0.302,0.463-0.566,0.816-0.786c0.347-0.217,0.763-0.387,1.251-0.509c0.489-0.123,0.996-0.185,1.523-0.185
		c0.47,0,0.905,0.041,1.306,0.125s0.767,0.206,1.095,0.371L69.677,98.254z"/>
	<path fill="#FFFFFF" d="M76.058,102.103l3.236-4.899l3.103,4.899h-0.73l-0.942-1.595h-3.009l-0.978,1.595H76.058z M77.941,100.139
		h2.566l-1.258-2.048L77.941,100.139z"/>
	<path fill="none" stroke="#FFFFFF" stroke-width="0.2" d="M76.058,102.103l3.236-4.899l3.103,4.899h-0.73l-0.942-1.595h-3.009
		l-0.978,1.595H76.058z M77.941,100.139h2.566l-1.258-2.048L77.941,100.139z"/>
	<path fill="#FFFFFF" d="M90.666,102.103h-0.818l-2.585-2.245H86.86v2.245h-0.671v-4.714h1.355c0.8,0,1.396,0.107,1.794,0.317
		c0.397,0.215,0.596,0.536,0.596,0.967c0,0.367-0.171,0.658-0.511,0.867c-0.341,0.212-0.809,0.317-1.406,0.317L90.666,102.103z
		 M86.86,97.764v1.741h0.673c0.626,0,1.06-0.063,1.307-0.19c0.247-0.129,0.371-0.345,0.371-0.653c0-0.323-0.129-0.555-0.384-0.69
		c-0.255-0.138-0.686-0.207-1.294-0.207H86.86z"/>
	<path fill="none" stroke="#FFFFFF" stroke-width="0.2" d="M90.666,102.103h-0.818l-2.585-2.245H86.86v2.245h-0.671v-4.714h1.355
		c0.8,0,1.396,0.107,1.794,0.317c0.397,0.215,0.596,0.536,0.596,0.967c0,0.367-0.171,0.658-0.511,0.867
		c-0.341,0.212-0.809,0.317-1.406,0.317L90.666,102.103z M86.86,97.764v1.741h0.673c0.626,0,1.06-0.063,1.307-0.19
		c0.247-0.129,0.371-0.345,0.371-0.653c0-0.323-0.129-0.555-0.384-0.69c-0.255-0.138-0.686-0.207-1.294-0.207H86.86z"/>
	<polygon fill="#FFFFFF" points="95.91,102.103 95.91,97.793 93.88,97.793 93.88,97.391 98.612,97.391 98.612,97.793 96.577,97.793 
		96.577,102.103 	"/>
	<polygon fill="none" stroke="#FFFFFF" stroke-width="0.2" points="95.91,102.103 95.91,97.793 93.88,97.793 93.88,97.391 
		98.612,97.391 98.612,97.793 96.577,97.793 96.577,102.103 	"/>
	<path fill="#FFFFFF" d="M59.437,61.267c12.973,0,23.561-10.588,23.561-23.565c0-12.976-10.588-23.568-23.561-23.568
		c-12.919,0-23.506,10.593-23.506,23.568C35.931,50.678,46.518,61.267,59.437,61.267"/>
	<path fill="#0E0F0E" d="M60.82,16.349c-0.058-0.104,0.101-0.104,0.159-0.104c0.057,0.052,0.104,0.052,0.157,0.052
		c0.109,0.537,0.797,0.691,0.681,1.278c0.169,0.153,0.116,0.314,0.116,0.479c-0.051,0.049,0,0.1-0.116,0.1
		c-0.104,0.377-0.259,0.797-0.36,1.165c0.152,0.16,0.314-0.053,0.529,0.05c0.162,0.109,0.263-0.05,0.477,0.059
		c-0.052-0.109,0.101-0.109,0.154-0.059c0.209,0.059,0.427-0.155,0.53,0.059c0.106-0.109,0.426-0.059,0.585-0.059
		c0.052,0.059,0.209,0,0.264,0c0.206-0.104,0.424,0.109,0.633,0c0.158,0.215,0.427,0.109,0.642,0.272c0,0.211,0.206,0,0.206,0.152
		c0.158,0,0.32,0.111,0.427,0.111c0.422,0.16,0.159,0.53,0.366,0.742c-0.045-0.06-0.105,0-0.156,0.103
		c0,0.103,0.051,0.103-0.104,0.054c0,0-0.052,0-0.052,0.049c0.155,0.056,0.206,0.16,0.367,0.267c-0.101,0.218-0.367-0.267-0.528,0
		c0.161,0.058-0.059,0.159,0.106,0.271c0,0.049-0.057,0.103-0.106,0.049c-0.162-0.049-0.373-0.049-0.526-0.102
		c-0.055,0.155,0.153,0.155,0.206,0.207c-0.159,0-0.374-0.051-0.523-0.051c-0.37-0.215-0.806-0.155-1.118-0.264
		c-0.473-0.11-0.895,0.476-1.271,0.21c0,0.053,0,0.215-0.101,0.215c-0.108-0.111-0.156,0.05-0.214,0.05
		c-0.315,0-0.536,0.265-0.792,0.156c-0.264,0.212-0.594-0.052-0.85,0.212c-0.057,0.155-0.104,0.318-0.159,0.479
		c0.055,0.16,0.209,0.11,0.314,0.11c0.217,0.05,0.594-0.324,0.594,0c0.047,0,0.253,0,0.202-0.11c0.154,0.05,0.375,0.11,0.479,0.11
		c0.053,0.05,0.212-0.06,0.27,0.108c0.104-0.108,0.206,0,0.257,0c-0.101,0.31,0.377,0.046,0.321,0.31
		c0.102-0.053,0.214,0.058,0.263,0.109c0,0,0,0.051-0.049,0.104c-0.158,0-0.112-0.053-0.272-0.156
		c-0.046,0.051-0.102-0.058-0.102,0.051c0.102,0.104,0.216,0.265,0.423,0.368c-0.161,0.109,0,0.264-0.161,0.324
		c0.058,0.047,0.268,0.255,0,0.207c-0.102,0.048-0.102,0.208-0.102,0.265c-0.16-0.057-0.372-0.057-0.578-0.106v0.265
		c0.048,0.054,0.104,0.054,0.104,0.104c-0.263,0-0.698-0.212-0.954-0.104c-0.264,0-0.637,0.054-0.906,0.156
		c-0.156-0.103-0.156,0.11-0.317,0.059c-0.418,0.154-0.372,0.58-0.53,0.896c0,0.105-0.051,0.265-0.051,0.317
		c-0.057,0.109-0.057,0.316-0.215,0.264c-0.054,0.053-0.054,0.11-0.054,0.16c0,0.052,0.054,0.052,0.054,0c0,0,0,0.215-0.104,0.215
		c-0.054,0.05-0.054,0.05-0.054,0.103c0.054-0.053,0.219,0,0.105,0.058c-0.105,0.158,0.054,0.207,0.162,0.102
		c0.051-0.054,0.317,0,0.317-0.054c0.372-0.106,0.587-0.424,1.001-0.424c0-0.05,0.116-0.05,0.058-0.16
		c0.115,0,0.059,0.16,0.162,0.11c-0.047-0.11,0.054-0.162,0.11,0c0.053-0.11,0.264-0.11,0.21-0.214c0.101,0,0.31-0.213,0.414-0.16
		c0-0.103,0.116-0.103,0.116-0.212c0.053,0,0.053,0.057,0.104,0.057c0.053-0.057,0.212-0.057,0.317-0.162
		c0.057,0.054-0.048,0-0.048,0.105c0,0.057,0.048,0.109,0.048,0.057c0.108-0.162,0.37-0.162,0.53-0.318
		c0.102,0.105,0.102-0.049,0.214-0.101c0.155,0,0.372-0.161,0.475,0.052c0.105-0.052,0.262-0.11,0.159-0.213
		c-0.114,0-0.114,0.161-0.216,0.052c0.102-0.163,0.268,0,0.374-0.163c-0.056-0.478-0.212-1.006-0.42-1.484
		c0-0.369-0.217-0.632-0.275-1.007c0.275,0.168,0.222,0.586,0.537,0.586c0.052,0.156,0.158,0.317,0.158,0.477
		c0.105,0.316,0.213,0.63,0.371,0.899c0.047-0.212,0.106-0.101,0.047,0.051c-0.047,0.052,0,0.052,0,0.052c0-0.052,0.111,0,0.111,0
		c-0.052,0.059-0.052,0.11,0,0.11c0.209,0.155,0.476,0.055,0.683,0.155c0.168,0,0.374,0,0.532-0.053
		c-0.054,0.111,0,0.213,0.162,0.162c0,0.052,0.05,0,0.05,0c-0.05,0.104-0.05,0.214,0.057,0.214c0.321-0.163,0.159,0.265,0.321,0.315
		c0.101,0.05,0.151,0.05,0.264,0.05c0.046,0.054-0.163,0.105-0.061,0.214c-0.052,0.212-0.365,0.05-0.365,0.212
		c0.051,0,0.051,0.154,0.162,0.103c0.101-0.155,0.151,0.104,0.264,0.104c0.151,0.212-0.163,0.107-0.163,0.212
		c-0.161,0.057-0.263,0-0.212,0.213c0,0.058,0.111,0.106,0.156,0.106c-0.156,0-0.26,0.109-0.366,0.109
		c0,0.049,0.106,0.049,0.106,0.158c-0.163,0-0.375-0.053-0.375,0.161c0-0.05-0.054-0.05-0.102-0.05
		c-0.163,0,0.205-0.219-0.109-0.219c0.053,0.056-0.208,0.109-0.106,0.219c0.264,0.101-0.102,0.101-0.215,0.208
		c-0.149,0-0.315,0.101-0.418,0.051c0,0.103-0.102,0-0.158,0.05c-0.218,0.052-0.324,0.265-0.585,0.164
		c0.105,0,0.206-0.056,0.32-0.164c-0.215-0.153-0.32,0.108-0.478,0c-0.105,0.164-0.211,0.108-0.313,0.214
		c-0.217,0-0.372,0.16-0.586,0.212c-0.104,0-0.104,0.162-0.16,0.11c-0.212,0-0.37,0.103-0.576,0.204c0,0-0.162,0-0.162,0.111
		c0.104,0.053,0,0.104,0.051,0.162c-0.154-0.057-0.266,0.103-0.375,0.103c0-0.103,0.271-0.16,0.271-0.264
		c-0.271-0.051-0.324,0.213-0.577,0.213c-0.058,0-0.163,0-0.22,0.051v-0.051c-0.054,0.266-0.529,0.104-0.273,0.369
		c-0.043,0.05-0.151,0.05-0.205,0.154c-0.051-0.104-0.051-0.315-0.154-0.315c0.047,0.315-0.483,0.27-0.642,0.476h-0.158
		c0,0.05,0.058,0.05,0.058,0.104c0.054-0.104,0.259,0,0.259-0.155c0.108,0.05,0.213,0.101,0.051,0.101
		c-0.051,0.104,0.113,0.054,0.113,0.104c0.635,0.11,1.272,0.322,1.852,0.487c0,0.159,0.158,0,0.212,0.047
		c0.162,0.162,0.426,0.062,0.531,0.214c0.415,0.054,0.793,0.267,1.216,0.369c0.107-0.054,0.206,0.053,0.266,0.053
		c0.047,0,0.209,0,0.209,0.109c0.056,0,0.056,0.051,0.112,0.051c0.046,0,0.046-0.051,0.046-0.051
		c0.112,0.051,0.376,0.051,0.474,0.209c0.215-0.109,0.215,0.158,0.479,0.107c0.054,0.102,0.157,0.155,0.216,0.102
		c0.367,0.22,0.579,0.316,0.903,0.53c0.101,0.059,0.263,0.059,0.366,0.212c0.159-0.103,0.108,0.214,0.319,0.11
		c0.103,0.155,0.319,0.051,0.369,0.264c0,0.051,0.107,0,0.107,0.051c0.163,0.108,0.367,0.163,0.581,0.324
		c-0.155,0.155,0.104,0.155,0.157,0.257c0.159-0.102,0.262,0.266,0.472,0.375c0.105-0.159-0.157-0.159-0.157-0.268
		c0.114,0.054,0.479,0.158,0.321,0.318c0.057,0.052,0.057-0.05,0.113-0.05c0,0.05,0.103,0.05,0.044,0.156
		c0,0-0.044-0.106-0.101-0.054c0.211,0.212,0.417,0.475,0.627,0.534c0.109,0.055,0.266,0.106,0.425,0.106
		c0.108,0.264,0.426,0.477,0.532,0.742c0.159,0,0.102,0.208,0.27,0.208c0.047,0.05-0.057,0.05,0,0.159
		c0.047,0.051,0.098-0.109,0.148,0c-0.102,0.051-0.102,0.161,0,0.211c0,0.046,0,0.046-0.051,0.046c0.051,0.111,0.105,0,0.105,0
		l0.054-0.046c0.112,0.106,0,0.214,0.112,0.265c0,0.163,0.212,0.266,0.266,0.421c0,0.109,0.048,0.162,0.048,0.27
		c-0.102,0.158-0.313,0-0.426,0.209c0.112,0.048-0.054,0.107,0.061,0.158c0.052,0-0.114-0.051-0.169-0.11
		c-0.102,0-0.051,0.11-0.051,0.216c0,0.109-0.154,0.159-0.154,0.268c0,0.054-0.054,0.054-0.111,0.054
		c-0.046-0.054-0.102-0.109-0.102,0c-0.057,0.103-0.161-0.109-0.212,0.103c-0.212-0.157-0.263,0.368-0.368,0
		c-0.162-0.05-0.32-0.157-0.431-0.315c-0.049,0-0.049,0-0.105,0.049c0,0.109,0.159,0.054,0.159,0.163
		c-0.26-0.054-0.468-0.262-0.57-0.479c0.103-0.158-0.223-0.059-0.113-0.212c-0.257-0.162-0.257-0.478-0.58-0.582
		c-0.109-0.213-0.317-0.213-0.368-0.433c-0.215,0-0.32-0.257-0.426-0.257c-0.374-0.367-0.688-0.632-1.107-0.896
		c-0.167-0.058-0.327-0.164-0.485-0.164c-0.045-0.1-0.156,0-0.207-0.155c0.051,0,0.102,0.106,0.162,0c0-0.11-0.111-0.059-0.162-0.11
		c-0.428-0.317-1.007-0.424-1.536-0.576c0.427,0.049,0.897,0.152,1.377,0.258c-0.633-0.533-1.219-0.951-1.907-1.275
		c-0.055-0.05-0.105,0-0.161-0.05c-0.156-0.155-0.64-0.316-0.64-0.368c-0.048-0.051-0.097-0.051-0.209-0.11
		c-0.312-0.214-0.68-0.366-1-0.581c-0.169-0.102-0.529-0.158-0.482-0.425c-0.047,0.059-0.101,0.109-0.147,0.059
		c-0.058-0.109-0.273-0.109-0.377-0.215c-0.059-0.103-0.217-0.103-0.321-0.159c-0.371-0.209-0.843-0.418-1.161-0.64
		c-0.061,0.057-0.165-0.053-0.219,0c0.054-0.053,0-0.053,0-0.053c-0.162,0-0.162,0.275-0.262,0.162c0-0.108,0.159-0.108,0.159-0.162
		c-0.159-0.102-0.264,0.11-0.422,0.11c0.053,0.051,0.107,0.051,0.107,0.051c0.051,0,0.051-0.108,0.104-0.051
		c0.051,0,0,0.051,0,0.104c-0.104-0.104-0.104,0.107-0.159,0c-0.053,0-0.263,0-0.215,0.107c0,0.062-0.102,0.112-0.209,0.162v-0.05
		v-0.05c0-0.108-0.054,0-0.159-0.062c-0.056,0.062-0.056,0.112-0.154,0.112c-0.054-0.05-0.054,0.103-0.115,0.103
		c-0.044,0.054,0.061,0.103,0.061,0.054c0-0.156,0.208-0.106,0.367-0.156c0,0-0.108,0.05-0.054,0.103
		c-0.313,0.054-0.472,0.157-0.587,0.369c-0.205,0.053-0.205,0.371-0.313,0.371c-0.054,0.319-0.264,0.373-0.369,0.693
		c0,0-0.054,0-0.054,0.045h0.054c-0.054,0.162-0.266,0.265-0.218,0.426c-0.207,0.32-0.415,0.742-0.634,1.008
		c-0.11,0.209-0.264,0.368-0.367,0.582c0,0.05-0.102,0.269-0.216,0.269c-0.101,0,0.054,0.1,0,0.159
		c-0.159,0.047-0.159,0.317-0.368,0.256c0.051,0.218-0.212,0.378-0.374,0.585c-0.051,0.05-0.097-0.053-0.097,0
		c0.097,0.101-0.055,0.21-0.115,0.264c-0.156,0.212-0.31,0.263-0.418,0.372c0,0.053,0.108,0,0.155,0.053
		c-0.155,0-0.155,0.058-0.253,0.109c-0.114,0.209-0.229,0.258-0.434,0.42c0,0.16-0.104-0.052-0.159,0.051
		c-0.05-0.103-0.102,0.058-0.212,0c-0.051,0.058-0.107,0.162,0,0.109c0.058,0,0.162-0.109,0.267,0
		c-0.157,0.206-0.429,0.421-0.584,0.58c0.112,0.163-0.104,0.054-0.104,0.109c-0.057,0.106-0.208,0.157-0.108,0.215
		c-0.051,0-0.1,0.153-0.151,0.053c-0.108,0,0,0.101-0.062,0.153c0-0.053-0.047-0.103-0.151-0.053
		c0.047,0.053-0.161,0.053-0.054,0.105c-0.107-0.052-0.223,0.051-0.27,0.051c0,0.159,0.047,0.059,0.108,0.059
		c0,0.16-0.319,0-0.319,0.264c-0.044,0-0.096-0.164-0.21-0.052c0.166,0.104-0.054,0.213-0.162,0.266
		c-0.105,0.05,0.057-0.053-0.048-0.053c-0.057,0-0.11-0.059-0.167-0.059c0,0.059,0,0.111,0.057,0.111c0.053,0,0.053,0,0.053,0.05
		c-0.053,0-0.053,0.104-0.053,0h-0.105c-0.158,0.154,0.215,0-0.056,0.154c-0.16,0-0.372,0.215-0.531,0.104c0-0.051-0.046,0-0.046,0
		c-0.111,0,0.046,0.058,0.046,0.11c-0.158,0-0.259,0.056-0.316,0.109c0.058,0.104-0.209,0.051-0.267,0.153
		c-0.101-0.05-0.209,0.162-0.313,0c-0.105,0-0.159-0.05-0.159,0.058c-0.054-0.058-0.054-0.107-0.1-0.16
		c-0.051,0.052-0.051,0-0.051,0c-0.169-0.104-0.22,0.16-0.378,0.052c-0.047,0-0.216-0.052-0.375,0
		c-0.046,0.212-0.215,0.05-0.317,0.107c-0.155-0.107-0.42,0.104-0.475-0.107c-0.155,0-0.417-0.157-0.533,0
		c-0.046,0.107,0-0.212-0.046-0.104c-0.058-0.162-0.32-0.053-0.26-0.219c-0.061-0.051,0-0.104-0.116-0.154
		c-0.05,0-0.209,0.212-0.162-0.054c-0.047-0.153-0.209,0.157-0.209-0.05c-0.047-0.05-0.158,0-0.158-0.05
		c0,0.05-0.046,0.05-0.046,0.05c0-0.05,0.101-0.103,0.046-0.103c0.054,0.053,0.111-0.059,0.213-0.059
		c-0.159-0.051-0.26-0.051-0.433-0.154c-0.047,0,0-0.111-0.101-0.111c0,0.059-0.047,0-0.047-0.049c0-0.11-0.158-0.213-0.158-0.316
		c-0.685-0.638,0.205,0.103,0.367,0.155c1.005,0.27,1.753-0.206,2.705-0.367c0.263-0.106,0.482-0.216,0.687-0.314
		c0.638-0.375,1.269-0.803,1.909-1.275c0.104-0.265,0.414-0.484,0.634-0.689c0.101-0.213,0.479-0.262,0.479-0.528
		c0.1-0.104,0.267,0.047,0.313-0.162c0-0.047-0.046-0.155,0.054-0.155c0-0.165,0.264-0.106,0.264-0.32
		c0.162-0.108,0.267-0.267,0.317-0.423c0.374-0.324,0.536-0.632,0.792-0.956c0.212-0.315,0.489-0.638,0.687-1.003
		c-0.198-0.111-0.414,0.101-0.63,0.101c-1.055,0.219-2.113,0.426-3.182,0.219c0.057-0.051-0.206-0.168-0.264-0.32
		c-0.104-0.054-0.155-0.111-0.316-0.215c0.053-0.367-0.101-0.685-0.055-1.05c-0.046-0.062-0.104-0.062-0.104-0.169
		c0.058,0.107,0.159,0.061,0.212,0.107c0-0.161-0.212-0.322-0.108-0.482c0.055-0.207,0.159-0.368,0.371-0.522v0.109
		c0.216,0.104,0.431,0.045,0.586-0.059c-0.107,0.104-0.155,0.215-0.212,0.37c0.267,0.262,0.735,0.05,1.012,0.05
		c0.263-0.05,0.576-0.155,0.894-0.205c0,0,0,0.155,0.11,0.155c0-0.104,0.157-0.104,0.051-0.207h0.105
		c0.309-0.163,0.68-0.163,0.842-0.315c0.111,0.05,0.159,0.05,0.273,0c0.101-0.162,0.313-0.058,0.472-0.162
		c0.536-0.155,0.895-0.367,1.483-0.529v0.102c0.108-0.152,0.32,0,0.264-0.204c0.269,0.052,0.215-0.322,0.374-0.429
		c0-0.108,0-0.209,0.154-0.158c0,0,0.059,0,0.059-0.051c0-0.108-0.268,0.051-0.108-0.108c0.208-0.264,0.049-0.527,0.313-0.797
		c-0.046-0.155,0.115-0.419,0.115-0.632c0.098-0.109,0-0.214,0.054-0.37c-0.169-0.049-0.274,0.156-0.432,0.105
		c0,0.104-0.049-0.05-0.104-0.05c-0.051,0-0.051,0.05-0.051,0.05l0.051,0.05c-0.051,0.105-0.209,0.054-0.369,0.054
		c0.054-0.104,0.263-0.104,0.159-0.209c-0.53,0.261-1.17,0.583-1.642,0.897c0.472-0.367,1.112-0.741,1.696-1.057
		c-0.054-0.161-0.269-0.05-0.269-0.213c-0.156,0.052-0.212-0.103-0.361-0.052c-0.215-0.051-0.111-0.315-0.273-0.426
		c0.058-0.212-0.218-0.263-0.107-0.423c-0.313-0.265,0.219-0.265,0-0.526c0-0.109,0-0.212,0.166-0.271
		c0.158,0,0.313,0.111,0.469,0.059c0.049,0-0.048,0.052-0.048,0.104c0.475,0.052,1.001-0.104,1.48-0.212
		c0.054-0.051,0.162-0.104,0.215-0.265c-0.054-0.154,0.054-0.263,0.054-0.368c0.102-0.32,0.102-0.691,0.209-1.007
		c0-0.05,0-0.108-0.108-0.161c-0.371,0.111-0.691,0.053-1.109,0.161c-0.213,0.051-0.531,0.104-0.799,0.051
		c-0.364,0-0.685,0.104-0.999-0.051c-0.375,0.104-0.746-0.108-1.069,0c-0.374-0.108-0.517-0.528-0.58-0.853
		c-0.212-0.266,0.111-0.154,0.206-0.266c0.65,0.06,1.068-0.102,1.699-0.207c0.058,0,0.213-0.16,0.32-0.058
		c0.273-0.153,0.635-0.205,0.954-0.205c0.16-0.103,0.318-0.103,0.426-0.103c0.1,0,0.162-0.163,0.215-0.06
		c0.105,0,0.159-0.162,0.206-0.103c0.32-0.059,0.586-0.109,0.9-0.211c0.159,0,0.367,0,0.367-0.214
		c0.114-0.53,0.432-1.059,0.586-1.538c0.051-0.314,0.317-0.629,0.051-0.902c0.108-0.104,0-0.259,0.108-0.369
		c-0.108-0.101,0.105-0.211,0.105-0.374C60.504,16.143,60.607,16.349,60.82,16.349 M61.771,21.229
		c-0.314,0.049-0.635,0.108-0.951,0.108c0,0.207-0.108,0.368-0.108,0.582c0.481-0.214,0.847-0.427,1.325-0.69H61.771z
		 M66.113,26.202c-0.051,0.11-0.316,0.212-0.104,0.265C66.113,26.362,66.113,26.313,66.113,26.202 M64.787,27.265
		c-0.046,0.108-0.479,0-0.525,0.209c0.158,0,0.265-0.153,0.423-0.101C64.685,27.321,64.685,27.265,64.787,27.265 M53.877,35.792
		C53.72,35.843,53.777,35.843,53.877,35.792c0.047,0.051-0.053,0.155,0,0.051h0.047C53.982,35.792,53.877,35.792,53.877,35.792"/>
	<path fill="#0E0F0E" d="M57.324,36.321l0.313,1.006c0.587,0.581,0.908,1.22,1.539,1.799c0.262,0.163,0.42,0.324,0.586,0.482
		c0.157,0.104,0.157,0.316,0.208,0.414c0.051,0.162,0.102,0.162,0.215,0.162c0,0,0-0.048-0.057-0.048
		c0.057-0.053,0.105-0.212,0.216-0.114c0.104,0.272,0,0.061,0.05-0.048c0.317-0.103,0.109,0.32,0.368,0.268
		c0-0.22,0.216,0,0.158-0.058c0.115-0.101,0,0.11,0.058,0.11c0.058-0.052,0.215-0.052,0.32-0.11c0.158,0,0.104-0.101,0.205-0.101
		c0.105,0.053-0.047,0.053,0,0.101c0,0.058,0,0.058,0.055,0.058c0.051,0,0.051-0.105,0-0.105c0.051-0.053,0.104-0.212,0.213-0.053
		c-0.109,0.159,0.162,0.053,0.111,0.211c0.051,0-0.064,0.157,0.051,0c0,0.056,0.053,0.056,0.053,0.105
		c0.104,0,0.104,0.155,0.162,0.051c0,0.104,0.158-0.051,0.264,0c-0.058-0.157,0.051-0.368,0.151-0.477
		c-0.051-0.103,0.055-0.05,0.111-0.05c0-0.053,0.05-0.158,0.05-0.211c0.16-0.054-0.106-0.16,0.056-0.211
		c0.046-0.052,0-0.162,0-0.213c0.16-0.109,0-0.323,0.16-0.478c0.104-0.264,0.046-0.373,0.158-0.587
		c-0.055-0.05-0.112-0.05-0.112-0.104c0-0.101,0.268-0.212,0.058-0.263c-0.058-0.104,0.055-0.051,0.102-0.104
		c0-0.212-0.205-0.162-0.159-0.271c0-0.051,0.058-0.051,0.058-0.104c0.152,0.104-0.058,0.053,0-0.052
		c0.055,0,0.102-0.101,0.055-0.154c0,0,0-0.108-0.055-0.058c-0.058,0,0,0.058,0.055,0.111c-0.055,0.101-0.112,0-0.158,0
		c0-0.162-0.056-0.268,0.104-0.377c0.055,0.054,0,0.163,0.055,0.163c0.047-0.054,0-0.109,0-0.109c-0.055-0.054,0-0.153,0-0.213
		c0.047-0.105,0.047-0.216-0.055-0.157c0-0.059,0.055,0,0.055-0.059c0-0.206,0-0.365-0.112-0.466
		c0.313-0.165-0.262-0.269,0.112-0.319c-0.055-0.051,0.098-0.214-0.055-0.214c0.055-0.108,0-0.168,0-0.265
		c-0.264-0.056,0.152-0.11,0-0.219c0.102-0.101-0.159-0.153,0-0.206c-0.058,0,0.055-0.213-0.058-0.262
		c0.112-0.583,0-0.37,0.058-0.956c0.152,0,0.055-0.161,0.152-0.161c-0.051-0.158-0.098,0.106-0.152,0c0-0.105,0-0.158,0.102-0.105
		c0-0.103,0.051-0.152-0.047-0.262c0-0.055-0.055-0.109,0-0.165c0.047-0.051,0.047-0.207-0.055-0.259
		c0.055-0.104-0.218-0.16-0.058-0.314c-0.16-0.059-0.102-0.27-0.262-0.432c-0.106,0-0.212-0.31-0.313-0.419
		c-0.426-0.742-1.376-0.477-2.125-0.584c-0.267,0-0.368,0.157-0.525,0.262c-0.378,0.111-0.692,0.382-1.06,0.536
		c-0.057,0-0.057,0.103-0.158,0.103c-0.054,0.212-0.054,0.103-0.108,0.212c-0.109,0.104-0.109,0.154-0.162,0.264
		c-0.259,0.109-0.364,0.907-0.58,1.006c-0.108,0.106,0,0.319-0.158,0.373c0.374-0.32,0.532-0.373,0.845-0.637
		c0.162-0.211,0.162-0.316,0.479-0.418c0.417-0.484,1.426-0.265,2.06-0.484c0.162,0,0.325,0,0.325,0.16
		c0.11,0.632-0.053,0.632-0.053,1.271c0.053,0.108,0.105-0.055,0.105,0.108c0-0.108-0.105-0.054-0.105,0.051
		c0,0.053,0.21,0.104,0.053,0.163c0,0.155,0,0.261,0.11,0.319c0,0.152-0.11,0.264,0,0.419c-0.32-0.104-1.438-0.477-1.812-0.315
		c-0.047,0.108-0.267,0-0.428,0.048c-0.205,0.061-0.415-0.152-0.573,0c-0.108-0.101-0.162,0-0.217,0
		c-0.312,0.112-0.586,0.377-0.849,0.532C57.27,35.261,57.219,35.792,57.324,36.321 M57.954,36.321L57.954,36.321
		c0.269-0.478,0.536-0.478,1.011-0.632c-0.054,0.051,0.104,0.051,0.104,0.154c0.047,0.478-0.053,0.907,0.047,1.434
		c0,0.206,0.059,0.529,0.162,0.742C58.646,37.642,58.223,37.064,57.954,36.321 M57.104,35.21c-0.043,0.846-0.154,1.639,0.271,2.596
		v0.16h0.054c-0.159,0.053,0.158,0.208-0.054,0.311c0.104,0.051,0.054,0.217,0.162,0.271c-0.108,0.315,0.158,0.528,0.158,0.846
		c-0.059,0-0.059-0.053-0.108,0c0.108,0.16,0.27,0.109,0.154,0.266c-0.046-0.106-0.105,0.054-0.154,0.054
		c0.154,0.053,0.27-0.054,0.27,0.158c-0.115-0.054-0.162,0.103-0.22,0.151c0.159,0.061,0.059,0.328,0.318,0.22
		c0.115,0.108-0.159,0.158,0,0.108c0-0.056-0.044-0.056-0.044-0.056c-0.054,0-0.115-0.052-0.115,0v0.056h-0.054
		c-0.105,0-0.046-0.213-0.263-0.267c-0.104,0.053,0.059,0.101,0.059,0.211c-0.108,0.208-0.318-0.272-0.213,0.105
		c-0.159,0.051-0.054-0.105-0.159-0.158c-0.104,0.108,0.054,0.209,0.054,0.26c0-0.103-0.328-0.051-0.269-0.26
		c-0.059-0.058-0.108-0.058-0.212,0c0,0.052-0.149,0.052-0.051,0.108c0.051,0,0.051,0.05,0.108,0.05
		c-0.057,0.051-0.108,0-0.108,0.103c0,0,0.051-0.051,0.108,0c0,0.052-0.206-0.051-0.206,0c0.046,0,0-0.051,0,0
		c-0.111-0.103-0.273,0.271-0.215,0c0.054,0,0.054-0.051,0.054-0.051c-0.22-0.051-0.22-0.101-0.22-0.314
		c0-0.053,0-0.053-0.051-0.053c-0.417-0.633,0.32-0.159-0.06-0.424c0-0.051,0.06-0.106,0.11-0.157c0,0-0.155,0.051-0.11-0.052
		c0.06-0.161-0.103,0-0.044-0.161c0.044,0.051,0.044,0,0.104-0.058c-0.06-0.051-0.06-0.105-0.104-0.156
		c-0.058,0.05-0.109,0.05-0.109,0c0.051-0.161-0.103-0.213-0.103-0.375c0.103,0,0.103,0.111,0.212,0
		c-0.109-0.05-0.159-0.207-0.212-0.315c0.212-0.058-0.054-0.058,0-0.162c0,0-0.101-0.104-0.054-0.05
		c0.107,0,0.054-0.104,0.107-0.104c0-0.05-0.154-0.05-0.053-0.103c0.053,0,0.053-0.059,0.053-0.059
		c-0.053-0.102-0.154,0.059-0.107-0.051c0.054-0.051,0-0.104-0.047-0.215c-0.169-0.101,0-0.315-0.061-0.469
		c0.108-0.108-0.156-0.161,0.061-0.215c0.154-0.208-0.274-0.268-0.115-0.484c0.054-0.048,0.054-0.206,0.054-0.206h-0.054
		c0.054-0.213-0.054-0.529,0.054-0.743c-0.054-0.477,0.061-0.954,0.215-1.373c-0.107-0.213,0.159-0.213,0.101-0.377
		c0.103-0.528,0.378-0.953,0.482-1.372c0.209-0.163,0.111-0.374,0.26-0.588c0.057-0.212,0.269-0.477,0.367-0.689
		c0.325-0.471,0.374-0.529,0.806-0.898c0.206-0.155,0.526-0.256,0.843-0.425c-0.051,0.107-0.264-0.215,0-0.267
		c0.158-0.05,0.158,0.327,0.316,0.267c-0.688,0.322-1.375,0.953-1.592,1.705c-0.104,0.154-0.104,0.418-0.154,0.573
		c0.051,0.16-0.22,0.323-0.054,0.484C57.061,33.457,56.891,34.305,57.104,35.21 M60.551,35.475
		c-0.102,0.051-0.047,0.163-0.047,0.214c-0.217,0.154,0.104,0.367,0,0.58c0.104,0.634-0.319,1.272-0.319,1.851
		c-0.113,0.104-0.215,0.208-0.37,0.104c-0.22-0.104-0.378-0.316-0.432-0.523c0-0.475,0.114-1.011,0.053-1.542
		c0.378-0.151,0.215-0.685,0.748-0.42c0,0,0,0.053,0.048,0.053c0.054-0.104-0.105-0.317,0-0.317
		C60.345,35.579,60.551,35.049,60.551,35.475 M57.375,37.966c-0.051,0-0.105-0.109-0.051-0.109
		C57.375,37.857,57.375,37.908,57.375,37.966 M56.053,38.966c-0.058-0.051,0-0.207-0.058-0.207
		C55.995,38.863,55.995,38.915,56.053,38.966 M56.531,39.18c0,0.051-0.104,0.109-0.158,0.109c0.054,0.104,0.054,0.161,0.054,0.213
		C56.477,39.393,56.588,39.289,56.531,39.18"/>
	<path fill="#0E0F0E" d="M49.323,54.176h0.061v0.051v0.053c0,0.052,0,0,0.05,0.052c0,0-0.05,0.05-0.05,0.101
		c0.05,0,0.05,0.053,0.05,0.105c0,0-0.05,0.109,0,0.109c0,0.051,0.059,0,0.059,0.051c0,0,0.051,0.059,0.051,0.111
		c-0.051,0.16,0.1,0.322,0.1,0.425c0.054,0.315,0.159,0.737,0.372,1.008v0.11c0.051,0,0.101,0.148,0.159,0.148
		c0,0.11,0.266,0.22,0.266,0.322h0.054h0.046v0.106l0.904,0.424h0.104c0.057,0.05,0.057,0.05,0.107,0.05
		c0.685,0.105,1.33,0.105,1.905-0.05c0-0.052,0.055,0,0.055-0.052c0.424,0,0.842-0.106,1.267-0.16
		c1.17-0.11,2.336-0.317,3.392-0.582c0.108,0,0.532-0.206,0.532-0.315c0.054,0,0.054-0.059,0.159-0.059h0.104
		c0,0,0.209-0.051,0.209-0.16h0.054v0.055c0.372,0,0.637-0.162,0.901-0.32c0.425-0.209,0.96-0.046,1.271-0.318v-0.051l0.158-0.049
		c0-0.165,0.801-0.165,0.801-0.265c0.523,0,0.953-0.427,1.479-0.478l0.642-0.059c0.158-0.156,0.371-0.206,0.574-0.105
		c0.059,0.053,0.377-0.101,0.801-0.051c0.63,0,1.373,0.215,1.798,0.427c0.212,0.057-0.107,0.212,0.638,0.425
		c0,0.052,0.153,0.052,0.153,0.052c0-0.052,0.054,0,0.054-0.052c0-0.059,0.056,0,0.056-0.059c0.048-0.043,0.048-0.043,0.048-0.1
		c0.056-0.105-0.157,0-0.104-0.053c0.056-0.052,0.159,0.053,0.104-0.212c0-0.162,0.106-0.271,0.158-0.376
		c0.117-0.101,0.117-0.257,0.117-0.366c0.05-0.112,0.257-0.582,0.147-0.742h0.051l-0.051-0.052h-0.055
		c0-0.109-0.093-0.109-0.093-0.109c-0.064,0-0.169,0.05-0.169,0c-0.051-0.158-0.106-0.051-0.106-0.051
		c-0.365,0-0.585-0.155-1.056-0.155c-0.263-0.059-0.53,0.048-0.732,0.155c-0.115,0-0.161-0.056-0.161-0.107L66.7,52.899
		c-0.061,0,0-0.051-0.061-0.051v-0.052l-0.052-0.056h-0.161c0.062,0.108,0,0.159,0,0.217v0.1c0,0,0.062,0.106,0.062,0.156
		c-0.324,0-0.748-0.05-0.954,0.06h-0.058c-0.522,0-1.642,0.109-1.96,0.425c-0.101,0-0.263,0-0.32,0.053
		c-1.105,0.316-2.275,0.631-3.334,0.947c-0.047,0-0.53,0.111-0.53,0.167c-0.263,0-0.688,0.156-0.95,0.266
		c-0.313,0.154-0.795,0.208-1.217,0.208c-0.215,0-0.428,0.1-0.634,0.1c-0.375,0-0.691-0.1-1.009,0c-0.158,0.109-0.378,0-0.64,0
		h-1.059l-0.954,0.161l-1.045-0.161c0-0.051,0-0.1-0.064-0.1h-0.051c0-0.054-0.162-0.208-0.162-0.265c0,0-0.159-0.105-0.159-0.158
		c0-0.16-0.215-0.431-0.215-0.535l-0.421-0.527c0.104-0.055-0.213-0.208-0.213-0.26h-0.046c-0.054,0-0.054-0.11-0.054-0.11H50.38
		c-0.046-0.053-0.103-0.103-0.154-0.212h-0.112c-0.101,0,0,0.109-0.101,0.109v0.049c0,0-0.05-0.049-0.108,0
		c0,0.106-0.159,0.053-0.159,0.106v0.058c0,0.051,0.111-0.058,0.111,0l0.256,0.051V53.8c-0.05,0-0.05,0.055-0.101,0.055
		c-0.05,0-0.05-0.055-0.108-0.055c-0.047,0-0.047-0.049-0.104-0.049h-0.055c0.055-0.266-0.104-0.053-0.104-0.053
		c-0.1,0-0.32,0.102-0.32,0c0-0.051-0.051-0.103-0.101-0.103l-0.05,0.051V53.8l0.05,0.055v0.1h0.05v0.059v0.053l0.051,0.051V54.176z
		 M55.739,44.375h-0.062v-0.054v-0.055c-0.053,0-0.053-0.055-0.107-0.055c-0.047,0-0.104,0-0.151-0.05h0.151v-0.05l0.054-0.056
		v-0.054c0.115,0.054,0.216,0,0.163-0.158v-0.049h-0.109l0.062-0.058c0-0.052,0.102-0.052,0.102-0.052v-0.059h0.054
		c0-0.047,0.203-0.101,0.262-0.101v-0.051l0.113-0.053v-0.054c0.104-0.053,0.32,0,0.263-0.159c0-0.054,0.057,0,0.104,0
		c0,0.053-0.047,0.159-0.047,0.212h-0.057c0.057,0.053-0.054,0.053-0.054,0.053s-0.162,0.051-0.208,0.105l-0.061,0.106l0.165-0.059
		c0,0,0.054,0,0.054-0.047c0.05,0,0.162-0.105,0.208-0.105h0.051V43.42c0.108,0,0.205,0.053,0.205-0.054
		c0.059-0.053,0.115-0.053,0.115-0.053c0.098,0.053,0.055-0.16,0.213-0.053c0,0,0-0.053,0.051-0.053v-0.054h0.105
		c0.054-0.103,0.104-0.158,0.162-0.103v-0.056c0.05,0,0.205-0.053,0.258-0.103c0.062-0.056,0.115-0.106,0.159-0.056v-0.05
		c0,0.05,0.061,0,0.115,0c0,0,0.098,0,0.098-0.06c0.056,0,0.056,0,0.056-0.051c0-0.05,0.051-0.109,0-0.109h0.051l0.054-0.048
		l0.054,0.048c0.053,0.059,0.107-0.048,0.209-0.105c0.11,0,0.215-0.05,0.215-0.05h0.054V42.36h0.051v-0.057h0.054v-0.104
		c0.051-0.056,0.104,0,0.104-0.056c0,0-0.053-0.055,0-0.055h0.047V42.04h0.059c0.046,0,0,0.104,0,0.104h0.046v0.056h0.162v-0.056
		h0.054v-0.055h0.107c0,0,0.108,0,0.108-0.049h0.051c0-0.054,0.058,0,0.058-0.054c0.054,0,0.259-0.102,0.31-0.155
		c0-0.058,0.162-0.058,0.162-0.108c0.054-0.053,0.215-0.053,0.271-0.103h0.047c0-0.053,0.107-0.053,0.161-0.053h0.051v-0.059
		c0.057,0,0.101-0.05,0.158-0.05c0,0,0.216-0.104,0.272-0.104l0.053-0.158c0.053,0,0-0.055,0.053-0.055v-0.05l0.058-0.054
		c0.047,0,0.047,0,0.047-0.053h0.054c0-0.056-0.054-0.111-0.054-0.111l0.054-0.046h0.047v-0.053h0.055v-0.058c0,0,0-0.05,0.051-0.05
		c0.053,0,0.053,0.05,0-0.059c0.053,0,0.208,0.109,0.273,0.059c0.051,0,0.051,0.05,0.051,0.05v0.058h0.157v0.053h0.104l0.111,0.158
		c0,0,0.105-0.111,0.105-0.056h0.051h0.05c0,0,0.372,0.109,0.372,0h0.056v0.109h0.046l0.058,0.054v0.05h0.055l0.047,0.055v0.105
		h0.153v-0.049c0.218-0.056,0.592-0.11,0.748-0.11l0.057,0.055c0.205-0.055,0.044,0.056,0.099,0.056c0.106,0,0.218,0,0.269,0.049
		v-0.049c0.112,0,0.112,0.049,0,0.103c-0.051,0,0,0.053,0,0.053h-0.103v-0.053c-0.06-0.053-0.321-0.053-0.372,0h-0.161v0.104
		c0.161,0,0.427,0,0.533,0.05h0.052l0.051,0.059h0.112c0,0,0.046,0.053,0.046,0.103l0.112,0.053h0.314
		c0,0.108,0.16,0.162,0.16,0.263v0.054h0.102c0,0.049-0.047,0-0.047,0.049l0.047,0.055v0.106v0.053
		c-0.047,0.057,0,0.057-0.047,0.057c0,0.052-0.113,0.102-0.113,0.102v0.057l-0.055,0.048l-0.098,0.059l-0.051,0.05h-0.059v0.051
		h-0.154v0.06h-0.058l-0.055,0.05c-0.209,0-0.367-0.11-0.582-0.11v-0.051c-0.051,0-0.212,0.051-0.263,0.051v0.06v0.05h0.106
		l-0.056,0.056c-0.103,0.05-0.364-0.056-0.419-0.056h-1.221c-0.424,0.056-0.792,0.214-1.159,0.317
		c-0.324,0.054-0.587,0.107-0.851,0.16c-0.057,0-0.057,0.053-0.113,0.053h0.057c0,0.054,0,0-0.057,0.054
		c0.057,0,0.113,0.053,0.162,0.053h0.054v0.051l0.162,0.054c0,0-0.054,0,0,0v0.047h0.055v0.059h0.047c0,0.052,0,0.052,0.057,0.052
		c0,0.058,0.051,0,0,0.107c0,0.047,0.051,0.104,0.051,0.104c0,0.214,0.104,0.164,0.104,0.319c0.057,0.21,0.057,0.475,0.057,0.532
		c0.044,0.215-0.057,0.265,0.044,0.421c0,0.05-0.101,0.374-0.044,0.476c0,0.165,0.044,0.055,0.044,0.105
		c-0.044,0.108-0.151,0.265-0.044,0.374h0.044c0.173,0,0.273-0.053,0.383-0.053c0.053,0,0.157-0.056,0.258-0.056l0.055-0.055
		c0.259,0,0.532-0.21,0.796-0.21c0.108-0.105,0.472,0,0.586-0.105c0.158-0.051,0.476-0.102,0.633-0.102c0.105,0,0.211,0.051,0.317,0
		c0.213-0.104,0.529-0.164,0.793-0.164h0.162c0.05-0.049,0.21,0,0.257,0c0.321,0,1.165,0.164,1.698,0.111
		c0,0.053,0.585,0.21,0.641,0.21c0,0,0.047,0.051,0.104,0.051l0.043,0.06c0.06,0,0.167,0,0.167,0.048
		c0.054,0,0.212,0.213,0.212,0.213v0.053l0.151,0.107c0.048,0-0.045,0.109,0,0.165c0.048-0.055,0.048,0.047,0.11,0.152
		c0.059,0,0.164,0,0.164,0.054h0.048v0.048l0.056,0.06l-0.056,0.053c0.056,0,0.105,0.05,0.105,0.099
		c0.054,0.061,0.109,0.165,0.109,0.267h0.048c-0.048,0.049-0.157-0.102-0.048,0.104c0,0.103,0.154,0.482,0.048,0.646
		c-0.048,0-0.048,0.256-0.048,0.308h-0.056c-0.104,0.16-0.207,0.425-0.262,0.53h-0.051v0.053c-0.059,0.05-0.121,0.159-0.169,0.159
		c0,0.054-0.093,0.16-0.151,0.16v0.045l-0.212,0.271c-0.05,0-0.05,0.059-0.05,0.059h-0.058c0,0.05-0.06,0.106-0.06,0.155
		c0,0,0,0.054-0.043,0.054h-0.058c0,0.049-0.103,0.159-0.103,0.159c0,0.056-0.159,0.056-0.159,0.157
		c-0.052,0.056-0.372,0.217-0.372,0.324c-0.054,0.051-0.154,0.155-0.215,0.155c-0.264,0.159-0.793,0.423-0.95,0.527v0.059
		c-0.055,0,0,0.051-0.055,0.051l-0.419,0.257c0,0.056-0.429,0.219-0.429,0.271c-0.046,0-0.204,0.104-0.261,0.104
		c-0.479,0.272-1.228,0.375-1.54,0.633c-0.16,0-0.574,0.11-0.736,0.164c-0.102,0.055-0.588,0.055-0.793,0
		c-0.101-0.054-0.054,0.108-0.101,0.055h-0.22V52.53c0-0.052-0.158-0.11-0.317-0.11c0,0-0.057,0.058-0.107,0.058v0.161l-0.054-0.055
		l-0.051,0.212c0,0-0.057,0-0.057,0.052v0.051l-0.047,0.158h-0.109h-0.05v0.056h-0.058c0,0.051-0.054,0.101-0.054,0.101h-0.105
		c0.057,0-0.057-0.101-0.057-0.05c-0.051,0-0.102-0.051-0.153-0.051c-0.057-0.056-0.157-0.056-0.215,0
		c0,0.051-0.051,0.051-0.051,0.051v0.109l-0.269-0.06v-0.05v-0.051l0.054,0.051l-0.262-0.051c0,0.101-0.059,0.319-0.059,0.482
		h-0.047c-0.104,0-0.208-0.058-0.316-0.058l-0.051-0.053l-0.11-0.053v-0.049H58.49c0-0.109-0.054-0.27-0.107-0.169v-0.05h-0.159
		v0.05h0.159v0.06v0.109l-0.054,0.049c0.054,0,0,0.106-0.161,0.053h-0.051v0.053l-0.046,0.058v0.051
		c-0.054,0-0.115,0.104-0.115,0.104H57.91c0,0.049-0.054,0.049-0.054,0.104c-0.062,0-0.162,0.05-0.22,0.05l-0.049-0.05v0.1
		l-0.05,0.059h-0.058v0.053c-0.05,0-0.104,0.051-0.104,0.051c-0.156,0-0.314-0.163-0.483-0.163h-0.097v-0.05h-0.108v-0.05h-0.051
		L56.588,53.8c0,0-0.057,0-0.057-0.049c-0.054,0-0.159-0.104-0.216-0.104h-0.046c0-0.051-0.061-0.051-0.113-0.109h-0.103v0.109
		c0.044,0,0.103,0.104,0.155,0.104h0.061V53.8v0.055c0,0,0.104,0.05,0.104,0c0.054-0.104,0.216,0.05,0.216,0.1h0.047
		c0,0.059,0.051,0.059,0.051,0.059v0.053c0.051,0,0,0.108,0,0.108v0.156h-0.098v0.101c0,0.053-0.057,0.105-0.057,0.105v0.059h-0.054
		v-0.111c0,0-0.05-0.104-0.104-0.104v0.051h-0.058v0.164v0.05l-0.107-0.05c-0.155-0.164-0.052-0.059-0.11-0.111h-0.044l-0.058-0.053
		c-0.051-0.051-0.256-0.207-0.317-0.207c-0.212-0.051-0.313-0.321-0.533-0.371c0,0,0-0.055-0.046-0.104
		c-0.105-0.053-0.267-0.053-0.267-0.155c0,0-0.046-0.058-0.046-0.11h-0.054c0-0.053-0.163-0.212-0.325-0.321
		c-0.111-0.051-0.205-0.158-0.205-0.265c-0.047,0-0.112-0.103-0.162-0.103c-0.058-0.056-0.115-0.104-0.163-0.157
		c0-0.055-0.1-0.161-0.1-0.161H53.72V52.42v-0.105l-0.104-0.103c0-0.05-0.157-0.103-0.157-0.153c-0.053,0-0.11-0.272-0.162-0.272
		c0-0.045-0.056-0.155-0.056-0.155c-0.098-0.163-0.21-0.527-0.21-0.742c-0.046-0.049-0.104-0.212-0.104-0.321
		c-0.108-0.155-0.208-0.313-0.259-0.53c0-0.051,0.051-0.267,0-0.267c0-0.049-0.062,0-0.062-0.049c0-0.103,0.112-0.159,0-0.159
		c-0.047,0,0-0.05,0-0.108c0-0.051-0.104-0.051-0.104-0.154v-0.117c0-0.045,0.057-0.099,0.057-0.099c-0.057,0-0.104,0-0.104-0.052
		c0-0.054,0.104-0.11,0.047-0.11c-0.047-0.054-0.047-0.157,0-0.261c0,0-0.102,0-0.047-0.11c0,0.058,0.104,0.058,0.104,0.058v0.052
		c0.047,0.104,0.108,0.639,0.259,0.639c0,0.103,0,0.154,0.051,0.262c0,0,0.057-0.05,0.115-0.05c0-0.16-0.058-0.16-0.058-0.374
		c0,0,0.058,0,0.058-0.054c0,0-0.167-0.052-0.115-0.052c0-0.164-0.051-0.481,0-0.584l0.057-0.212c0,0,0.058,0.051,0.058,0
		c0-0.052-0.058-0.156-0.058-0.207h0.104v0.051h0.054v0.053l0.059,0.051v0.052c0,0,0.043-0.052,0.043,0l-0.043,0.108
		c0.043,0,0.043,0.052,0.098,0c0,0,0-0.108,0.056-0.108c0,0,0.051,0.051,0.051,0v-0.052v-0.104h0.11l0.051,0.053l-0.051,0.051v0.052
		c0.051-0.052,0.051,0,0.102,0.051v0.058c0,0,0.055,0,0.055,0.052c0.104,0.052,0.161,0.316,0.161,0.37
		c0.046,0.103,0.263,0.479,0.263,0.586c0.115,0,0.162,0.418,0.162,0.472c0,0,0.05,0.056,0.05,0.111h0.043
		c0,0.05,0.111,0.209,0.111,0.265h0.051v0.054c0.057,0.051,0.111,0.157,0.159,0.262l0.482,0.842c0.046,0,0.158,0.052,0.158,0.108
		c0.051,0,0,0.054,0.051,0.054c0,0,0.057-0.054,0.057,0h0.158v0.109c0.102,0,0.155,0.109,0,0.109c0.047,0,0.102,0.104,0.155,0.104
		c0.163,0,0.062,0.051,0.062,0.102c0.048,0.059,0.155,0.161,0.205,0.161l0.051,0.053c0,0.05,0.103,0.05,0.103,0.102
		c0,0,0.059-0.052,0.11,0c0.061,0,0,0.051,0,0.051c0.061,0.06,0.165,0,0.219,0.105c0,0.058,0.162,0.058,0.208,0.11l0.051,0.054
		h0.108v0.055c0.048,0,0.156,0.101,0.212-0.055h0.055c0,0.055-0.055,0.212,0,0.212c0.104,0.052,0.209,0.052,0.264,0.052l0.05,0.051
		h0.054v-0.051c-0.054,0-0.104-0.052-0.159-0.052l0.055-0.104l0.212,0.048h0.05h0.049h-0.049l0.049-0.156
		c-0.049,0-0.208-0.209-0.208-0.209s-0.104,0.045-0.104-0.11c-0.055-0.052-0.318,0-0.318-0.052c-0.056,0.052-0.115,0.052-0.164,0
		c-0.104-0.153-0.415-0.05-0.573-0.05c0,0-0.061-0.103-0.113-0.155c0-0.059-0.212-0.266-0.262-0.266c0-0.109-0.372-0.218-0.27-0.431
		l0.319-0.053h0.051v-0.05l0.058-0.162v-0.051c0.044,0,0.044,0.11,0.044,0.11h0.11c0.061,0-0.052-0.163,0.061-0.163
		c0.158-0.052,0.469,0.053,0.573,0.053v-0.053h0.049c0.274-0.264,0.904-0.264,1.225-0.161c0,0.06,0.159,0,0.159,0.06l-0.051,0.101
		h0.105c0-0.052,0.054-0.101,0-0.161c0.054,0,0.054-0.792,0.107-0.898v-0.58c0-0.215,0.054-0.431,0.108-0.534
		c0.101-0.214,0.101-0.686,0.101-0.897c0.057-0.052,0.057-0.214,0.057-0.265h0.051c-0.108,0-0.209,0.05-0.264,0.103
		c-0.054,0.058-0.323,0.263-0.374,0.263l-0.101,0.059c0,0.051-0.22,0.155-0.22,0.155c0,0.052-0.054,0-0.054,0.052
		c-0.046,0-0.522,0.315-0.522,0.425l-0.115,0.051c0,0.054-0.098,0.054-0.098,0.107c-0.056,0-0.115,0.05-0.115,0.05v0.054
		c-0.049,0-0.205,0.11-0.256,0.11v0.052l-0.047,0.054c0,0-0.057,0-0.057,0.045h-0.054h-0.05v0.062c-0.054,0-0.158,0.055-0.219,0.055
		c0,0.052-0.11,0.052-0.155,0.103c0,0.051-0.109,0.051-0.109,0.109h-0.049c0,0-0.27,0.209-0.324,0.209c0,0.049-0.047,0-0.047,0.049
		c-0.057,0-0.104,0.11-0.158,0.11l-0.266,0.106h-0.053v0.106h-0.052v0.052c-0.046,0-0.377-0.052-0.377-0.108
		c-0.048,0-0.102-0.051-0.209-0.051l-0.047-0.05h-0.064c0.064,0,0.162-0.111,0.162-0.111c0-0.054,0.057-0.054,0.057-0.054v-0.049
		c0.054,0,0.156-0.054,0.156-0.103h0.212c0.064-0.057,0-0.165,0.064-0.165c0.046-0.051,0.046,0.059,0.098,0
		c0.053-0.051,0.053-0.209,0.263-0.271v-0.045h0.111c0-0.054,0.104-0.106,0.151-0.16c0-0.056,0.169-0.159,0.217-0.159
		c0-0.053,0.157-0.053,0.157-0.107c0,0,0.051-0.051,0.109-0.051c0-0.052,0.044-0.052,0.044-0.052c0.059,0,0.11-0.058,0.171-0.058
		l0.104-0.155c0,0.052,0.104,0,0.104,0l0.054-0.109v-0.051h0.057c0.253,0,0.516-0.419,0.84-0.419l0.05-0.052h0.058V47.71
		c0.05-0.052,0.374-0.103,0.374-0.265c0.159,0,0.313-0.159,0.472-0.159V47.23l0.053-0.049c0-0.051,0.209,0,0.209-0.051h0.057v-0.05
		h0.051c0.212-0.264,0.158-0.585,0.212-0.688l0.051-0.054c-0.051-0.477,0.1-1.274,0.1-1.751c0-0.058,0-0.11-0.047-0.16
		c0-0.051-0.053-0.16-0.053-0.16l-0.105-0.155v-0.056l-0.051-0.054v-0.054c0,0,0-0.057-0.054-0.057l-0.162-0.097v-0.058
		c0,0.058-0.053,0.058-0.101,0.058v0.049l-0.054,0.047c-0.107,0-0.536-0.154-0.536,0.057l-0.044,0.054
		c-0.115,0-0.586,0.11-0.641,0.16h-0.104v0.05c-0.104,0.11-0.323,0.215-0.53,0.215l-0.104,0.05v0.053
		c-0.054,0.058-0.263,0-0.375,0.058v0.051h-0.059v0.052H55.84l-0.054-0.052v-0.051C55.787,44.529,55.739,44.427,55.739,44.375
		 M58.702,43.736h0.051v0.058c0.053,0,0.107,0.049,0.107,0.049c0.051,0-0.054,0.104,0.051,0.104v0.054
		c0.054,0.054,0.105,0,0.105,0.054v0.056v0.05h0.053h0.047v0.05c0,0.055,0,0,0.059,0v0.11h0.046v0.054h0.057l-0.057,0.051h0.057
		v0.05h0.054l0.051-0.05c0,0,0-0.051-0.051-0.105v-0.11c-0.054,0-0.054-0.05-0.111-0.05l0.057-0.106h-0.057
		c-0.046,0,0.057-0.108,0-0.108h-0.046v-0.057h-0.106v-0.097h-0.104v-0.058h-0.054v-0.111l0.054-0.047
		c-0.054,0-0.104,0.047-0.159,0.047C58.807,43.625,58.753,43.685,58.702,43.736 M59.069,43.579h0.209l0.105,0.047v0.059
		c0.212,0,0.115,0.052,0.115,0.052c0.046,0.058,0.046,0,0.046,0.058v0.049h0.051v0.104c0,0.054,0.108-0.057,0.108,0v0.164h0.058
		h0.208h0.051l0.051,0.05v-0.05h0.057v-0.056c-0.057,0-0.057-0.054-0.057-0.054l-0.051-0.054c-0.102-0.057-0.051-0.154-0.051-0.154
		h-0.051v-0.058l-0.057-0.052v-0.059l0.209,0.059v-0.059l-0.051-0.047v-0.054h-0.259v-0.051
		C59.499,43.524,59.278,43.579,59.069,43.579 M57.636,53.058h-0.158v-0.1h0.058h0.158v0.1H57.636z M60.712,51.312
		c0.107,0,0.151-0.053,0.209-0.103h0.058c0,0,0.058-0.052,0.058-0.103c0.263-0.11,0.573-0.427,0.847-0.427l0.208-0.159v-0.104
		c0,0,0.058-0.051,0.058-0.106c0.047-0.051,0.364-0.212,0.364-0.319c0,0,0.105-0.05,0.105-0.106
		c0.162-0.056,0.208-0.318,0.368-0.318c0.058,0,0.058-0.05,0.112-0.05c0-0.268,0.634-0.374,0.634-0.693c0,0,0.052-0.053,0.103-0.053
		c0-0.054,0.056-0.104,0.056-0.104l0.105-0.052c0-0.058,0.051,0,0.051-0.058c0.057,0,0.155-0.104,0.215-0.104l0.047-0.052
		c0-0.052,0.06-0.109,0.06-0.16c0.052,0,0.052-0.103,0.158-0.103c0-0.053,0.215-0.264,0.261-0.264c0-0.052,0.167-0.265,0.167-0.322
		h0.051l0.266-0.32h0.047c0,0,0-0.049,0.055-0.049V47.08h0.052l0.053-0.104c0.058-0.061,0.058-0.16,0.058-0.213
		c-0.11-0.06-0.264-0.06-0.318-0.108c0-0.054-0.211-0.054-0.211-0.107h-0.218h-0.684c-0.213,0-0.425,0-0.633-0.052
		c-0.325-0.103-1.059,0-1.434,0.052L61.883,46.6c-0.065,0.054-0.273,0.103-0.324,0.103c0,0.06-0.522,0-0.522,0.113h-0.378
		c0.054,0.264,0.054,0.629,0,0.629c0,0.052-0.264,0.691,0.054,0.691v0.263c-0.104,0.105-0.161,0.473-0.104,0.636h0.051
		c0.104,0.151,0,0.48,0.054,0.689C60.863,50.148,60.551,50.841,60.712,51.312"/>
</g>
</svg>
